<svg width="316" height="454" viewBox="0 0 316 454" fill="none" xmlns="http://www.w3.org/2000/svg">
<path d="M316 149.243C316 231.668 245.261 359.939 158 359.939C70.739 359.939 0 231.668 0 149.243C0 66.8184 70.739 0 158 0C245.261 0 316 66.8184 316 149.243Z" fill="#272727"/>
<rect x="102.825" y="353.668" width="110.349" height="12.5414" rx="6.27072" fill="#D9D9D9"/>
<rect x="102.825" y="371.227" width="110.349" height="15.0497" rx="7.52486" fill="#D9D9D9"/>
<path d="M125.397 396.293C125.397 393.531 127.635 391.293 130.397 391.293H193.127C195.888 391.293 198.127 393.531 198.127 396.293V419.544C198.127 420.591 197.799 421.611 197.188 422.461L176.035 451.917C175.096 453.225 173.584 454 171.974 454H151.55C149.94 454 148.428 453.225 147.489 451.917L126.336 422.461C125.725 421.611 125.397 420.591 125.397 419.544V396.293Z" fill="#D9D9D9"/>
</svg>
