<svg width="401" height="503" viewBox="0 0 401 503" fill="none" xmlns="http://www.w3.org/2000/svg">
<path d="M163 76.9227C163 119.406 126.511 185.519 81.5 185.519C36.4888 185.519 0 119.406 0 76.9227C0 34.4394 36.4888 0 81.5 0C126.511 0 163 34.4394 163 76.9227Z" fill="#272727"/>
<rect x="53.0397" y="182.287" width="56.9206" height="6.4641" rx="3.23205" fill="#D9D9D9"/>
<rect x="53.0397" y="191.337" width="56.9206" height="7.75691" rx="3.87846" fill="#D9D9D9"/>
<path d="M64.6825 206.679C64.6825 203.918 66.9211 201.679 69.6825 201.679H97.1984C99.9598 201.679 102.198 203.918 102.198 206.679V215.46C102.198 216.507 101.87 217.528 101.259 218.378L91.5274 231.918C90.588 233.225 89.0768 234 87.4672 234H79.4137C77.8041 234 76.2929 233.225 75.3535 231.918L65.6223 218.378C65.0113 217.528 64.6825 216.507 64.6825 215.46V206.679Z" fill="#D9D9D9"/>
<path d="M401 76.9227C401 119.406 364.511 185.519 319.5 185.519C274.489 185.519 238 119.406 238 76.9227C238 34.4394 274.489 0 319.5 0C364.511 0 401 34.4394 401 76.9227Z" fill="#272727"/>
<rect x="291.04" y="182.287" width="56.9206" height="6.4641" rx="3.23205" fill="#D9D9D9"/>
<rect x="291.04" y="191.337" width="56.9206" height="7.75691" rx="3.87846" fill="#D9D9D9"/>
<path d="M302.683 206.679C302.683 203.918 304.921 201.679 307.683 201.679H335.198C337.96 201.679 340.198 203.918 340.198 206.679V215.46C340.198 216.507 339.87 217.528 339.259 218.378L329.527 231.918C328.588 233.225 327.077 234 325.467 234H317.414C315.804 234 314.293 233.225 313.354 231.918L303.622 218.378C303.011 217.528 302.683 216.507 302.683 215.46V206.679Z" fill="#D9D9D9"/>
<rect x="80" y="228" width="6" height="116" fill="#D9D9D9"/>
<rect x="318" y="226" width="6" height="116" fill="#D9D9D9"/>
<rect x="34" y="342" width="334" height="161" rx="30" fill="#D9D9D9"/>
</svg>
