<svg width="62" height="95" viewBox="0 0 62 95" fill="none" xmlns="http://www.w3.org/2000/svg">
<path d="M61.75 39.5V55.25C61.75 62.0833 61.0208 67.9792 59.5625 72.9375C58.1042 77.8542 56 81.8958 53.25 85.0625C50.5417 88.1875 47.3125 90.5 43.5625 92C39.8125 93.5 35.6458 94.25 31.0625 94.25C27.3958 94.25 23.9792 93.7917 20.8125 92.875C17.6458 91.9167 14.7917 90.4375 12.25 88.4375C9.75 86.4375 7.58333 83.9167 5.75 80.875C3.95833 77.7917 2.58333 74.125 1.625 69.875C0.666667 65.625 0.1875 60.75 0.1875 55.25V39.5C0.1875 32.6667 0.916667 26.8125 2.375 21.9375C3.875 17.0208 5.97917 13 8.6875 9.875C11.4375 6.75 14.6875 4.45833 18.4375 3C22.1875 1.5 26.3542 0.75 30.9375 0.75C34.6042 0.75 38 1.22917 41.125 2.1875C44.2917 3.10417 47.1458 4.54167 49.6875 6.5C52.2292 8.45833 54.3958 10.9792 56.1875 14.0625C57.9792 17.1042 59.3542 20.75 60.3125 25C61.2708 29.2083 61.75 34.0417 61.75 39.5ZM43.6875 57.625V37.0625C43.6875 33.7708 43.5 30.8958 43.125 28.4375C42.7917 25.9792 42.2708 23.8958 41.5625 22.1875C40.8542 20.4375 39.9792 19.0208 38.9375 17.9375C37.8958 16.8542 36.7083 16.0625 35.375 15.5625C34.0417 15.0625 32.5625 14.8125 30.9375 14.8125C28.8958 14.8125 27.0833 15.2083 25.5 16C23.9583 16.7917 22.6458 18.0625 21.5625 19.8125C20.4792 21.5208 19.6458 23.8125 19.0625 26.6875C18.5208 29.5208 18.25 32.9792 18.25 37.0625V57.625C18.25 60.9167 18.4167 63.8125 18.75 66.3125C19.125 68.8125 19.6667 70.9583 20.375 72.75C21.125 74.5 22 75.9375 23 77.0625C24.0417 78.1458 25.2292 78.9375 26.5625 79.4375C27.9375 79.9375 29.4375 80.1875 31.0625 80.1875C33.0625 80.1875 34.8333 79.7917 36.375 79C37.9583 78.1667 39.2917 76.875 40.375 75.125C41.5 73.3333 42.3333 71 42.875 68.125C43.4167 65.25 43.6875 61.75 43.6875 57.625Z" fill="white"/>
</svg>
